<svg xmlns="http://www.w3.org/2000/svg" viewBox="0 0 1080 1920" fill="none">
  <defs>
    <linearGradient id="bg" x1="140" y1="120" x2="940" y2="1800" gradientUnits="userSpaceOnUse">
      <stop stop-color="#1C1C46" />
      <stop offset="1" stop-color="#090914" />
    </linearGradient>
    <linearGradient id="orb" x1="300" y1="360" x2="780" y2="1160" gradientUnits="userSpaceOnUse">
      <stop stop-color="#8B85FF" />
      <stop offset="1" stop-color="#4FC3F7" />
    </linearGradient>
  </defs>
  <rect width="1080" height="1920" fill="url(#bg)" />
  <circle cx="540" cy="780" r="300" fill="#111129" stroke="url(#orb)" stroke-width="28" />
  <circle cx="540" cy="780" r="18" fill="#F6F7FB" />
  <path d="M540 780V600" stroke="#F6F7FB" stroke-width="28" stroke-linecap="round" />
  <path d="M540 780L680 860" stroke="#4FC3F7" stroke-width="22" stroke-linecap="round" />
  <rect x="430" y="360" width="220" height="64" rx="32" fill="#23234A" />
  <path d="M540 470C500 470 468 438 468 398C468 358 500 326 540 326C580 326 612 358 612 398C612 438 580 470 540 470Z" fill="#6C63FF" />
  <path d="M384 584L332 532" stroke="#6C63FF" stroke-width="22" stroke-linecap="round" />
  <path d="M696 584L748 532" stroke="#6C63FF" stroke-width="22" stroke-linecap="round" />
  <text x="540" y="1210" fill="#F6F7FB" font-size="96" font-family="Segoe UI, Arial, sans-serif" font-weight="700" text-anchor="middle">FocusTimer</text>
  <text x="540" y="1308" fill="#9EA3C5" font-size="38" font-family="Segoe UI, Arial, sans-serif" text-anchor="middle">Pomodoro focus sessions, goals, and progress</text>
</svg>
